<svg xmlns="http://www.w3.org/2000/svg" viewBox="0 0 56.56 56.56"><defs><style>.cls-1{fill:#feb613;}.cls-2{fill:#ff820b;}.cls-3{fill:#fdfefe;}</style></defs><g id="Calque_2" data-name="Calque 2"><g id="Calque_1-2" data-name="Calque 1"><circle class="cls-1" cx="28.28" cy="28.28" r="28.28"/><path class="cls-2" d="M28.75,56.08c0-.19-.19-.29-.31-.41L17.27,44.5l-.43-.44H39.05c.19,0,.39,0,.58,0s.41-.1.4-.41a15.79,15.79,0,0,1,0-1.82c0-.48-.12-.6-.6-.6-3,0-6,0-9,0a28,28,0,0,0-2.13-2.09l.38-.43L40.9,26.55c.26-.26.28-.4,0-.67-.65-.6-1.28-1.23-1.88-1.88-.3-.33-.45-.28-.74,0q-3.83,3.85-7.68,7.68c-.11.12-.19.3-.41.3V18.16c0-1.78,0-3.56,0-5.33.14.12.29.25.42.38Q42.37,24.94,54.09,36.68l.53.47a23.82,23.82,0,0,1-2.92,6.13A27.57,27.57,0,0,1,32.31,55.81,21.26,21.26,0,0,1,28.75,56.08Z"/><path class="cls-3" d="M30.2,12.83c0,1.77,0,3.55,0,5.33V32c.22,0,.3-.18.41-.3q3.85-3.82,7.68-7.68c.29-.29.44-.34.74,0,.6.65,1.23,1.28,1.88,1.88.28.27.26.41,0,.67L28.73,38.71l-.38.43c-.19,0-.28-.2-.4-.32q-6.1-6.09-12.21-12.18c-.36-.35-.33-.54,0-.85.63-.58,1.23-1.19,1.82-1.82.26-.28.41-.26.67,0,2.55,2.57,5.11,5.12,7.68,7.68a1,1,0,0,0,.39.34.83.83,0,0,0,.05-.51c0-6.07,0-12.13,0-18.2,0-.87-.12-.77.79-.78H29.8C30,12.51,30.21,12.53,30.2,12.83Z"/><path class="cls-3" d="M30.48,41.23c3,0,6,0,9,0,.48,0,.63.12.6.6a15.79,15.79,0,0,0,0,1.82c0,.31-.1.43-.4.41s-.39,0-.58,0H16.84c-.21,0-.31-.11-.3-.34,0-.71,0-1.42,0-2.14,0-.43.28-.33.52-.33H30.48Z"/></g></g></svg>