<svg xmlns="http://www.w3.org/2000/svg" xmlns:xlink="http://www.w3.org/1999/xlink" viewBox="0 0 55.41 55.41"><defs><style>.cls-1{fill:none;}.cls-2{clip-path:url(#clip-path);}.cls-3{fill:#feb613;}.cls-4{fill:#ff820b;}.cls-5{fill:#fdfefe;}</style><clipPath id="clip-path"><circle class="cls-1" cx="27.7" cy="27.7" r="27.7"/></clipPath></defs><g id="Calque_2" data-name="Calque 2"><g id="Calque_1-2" data-name="Calque 1"><g class="cls-2"><path class="cls-3" d="M28.18,55.51a25.4,25.4,0,0,1-9.28-1.43C8.61,50.34,2.27,43.07.3,32.31a27.8,27.8,0,0,1,54.52-10.8,27.36,27.36,0,0,1-.71,15,.67.67,0,0,1-.06.12c-.18-.16-.36-.31-.53-.48L30.05,12.64l-.42-.39c0-.29-.18-.32-.41-.31H26.6c-.92,0-.8-.1-.8.77V30.92a.86.86,0,0,1-.05.5c-.19-.06-.28-.21-.4-.33-2.56-2.56-5.13-5.12-7.68-7.69-.26-.26-.41-.28-.67,0-.58.62-1.19,1.23-1.82,1.81-.34.32-.37.5,0,.85q6.12,6.09,12.2,12.19c.12.12.21.29.41.31.75.65,1.43,1.38,2.12,2.1H16.48c-.24,0-.53-.09-.52.34,0,.71,0,1.43,0,2.14a.29.29,0,0,0,.31.33l.42.44L27.87,55.1C28,55.22,28.14,55.32,28.18,55.51Z"/><path class="cls-4" d="M28.18,55.51c0-.19-.19-.29-.31-.41L16.69,43.92l-.42-.44H39.05c.3,0,.42-.09.41-.41,0-.6,0-1.21,0-1.81s-.12-.6-.6-.6c-3,0-6,0-9,0-.69-.72-1.37-1.45-2.12-2.1a5,5,0,0,1,.38-.42Q34.24,32.05,40.32,26c.26-.26.29-.41,0-.67-.65-.61-1.29-1.23-1.89-1.89-.29-.32-.45-.28-.73,0C35.16,26,32.59,28.56,30,31.12c-.11.11-.19.29-.42.29V17.59c0-1.78,0-3.56,0-5.34l.42.39L53.52,36.1c.17.17.35.32.53.48a24.26,24.26,0,0,1-2.92,6.12,27.59,27.59,0,0,1-19.4,12.53A22.17,22.17,0,0,1,28.18,55.51Z"/><path class="cls-5" d="M29.63,12.25c0,1.78,0,3.56,0,5.34V31.41c.23,0,.31-.18.42-.29,2.56-2.56,5.13-5.12,7.68-7.69.28-.29.44-.33.73,0,.6.66,1.24,1.28,1.89,1.89.28.26.25.41,0,.67q-6.09,6.07-12.16,12.16a5,5,0,0,0-.38.42c-.2,0-.29-.19-.41-.31q-6.09-6.09-12.2-12.19c-.36-.35-.33-.53,0-.85.63-.58,1.24-1.19,1.82-1.81.26-.28.41-.26.67,0,2.55,2.57,5.12,5.13,7.68,7.69.12.12.21.27.4.33a.86.86,0,0,0,.05-.5V12.71c0-.87-.12-.77.8-.77h2.62C29.45,11.93,29.64,12,29.63,12.25Z"/><path class="cls-5" d="M29.9,40.66c3,0,6,0,9,0,.48,0,.64.11.6.6s0,1.21,0,1.81c0,.32-.11.43-.41.41H16.27a.29.29,0,0,1-.31-.33c0-.71,0-1.43,0-2.14,0-.43.28-.34.52-.34H29.9Z"/></g></g></g></svg>