<svg xmlns="http://www.w3.org/2000/svg" viewBox="0 0 14.64 14.63"><defs><style>.cls-1{fill:#0a66c2;}</style></defs><g id="Calque_2" data-name="Calque 2"><g id="Calque_1-2" data-name="Calque 1"><path class="cls-1" d="M14.64,14.14c0,.35-.14.49-.5.49-.74,0-1.48,0-2.22,0-.4,0-.5-.18-.5-.53,0-1.48,0-3,0-4.45a7.39,7.39,0,0,0-.11-1.33,1.15,1.15,0,0,0-1-1A1.47,1.47,0,0,0,8.71,8a2.62,2.62,0,0,0-.36,1.21c0,1.62,0,3.24,0,4.86,0,.49-.16.63-.62.61-.71,0-1.42,0-2.13,0-.29,0-.43-.09-.43-.42,0-3,0-6.07,0-9.1a1.48,1.48,0,0,1,0-.24H8.14V6.06a3.59,3.59,0,0,1,3-1.51,3.36,3.36,0,0,1,3.38,3.23C14.63,9.9,14.6,12,14.64,14.14Z"/><path class="cls-1" d="M3.44,13.94c0,.68,0,.68-.7.69s-1.35,0-2,0c-.34,0-.5-.12-.5-.48,0-3,0-5.9,0-8.85,0-.15.17-.42.27-.42,1,0,1.89,0,2.87,0,0,.24.05.45.05.65Q3.45,9.73,3.44,13.94Z"/><path class="cls-1" d="M3.68,1.83A1.86,1.86,0,0,1,1.82,3.66,1.85,1.85,0,0,1,0,1.85a1.84,1.84,0,0,1,3.68,0Z"/><path class="cls-1" d="M3.38,4.86c-1,0-1.92,0-2.87,0-.1,0-.27.27-.27.42,0,3,0,5.9,0,8.85,0,.36.16.48.5.48.67,0,1.35,0,2,0s.7,0,.7-.69q0-4.21,0-8.43C3.43,5.31,3.4,5.1,3.38,4.86Z"/><path class="cls-1" d="M1.83,0A1.84,1.84,0,0,0,0,1.85,1.85,1.85,0,0,0,1.82,3.66,1.86,1.86,0,0,0,3.68,1.83,1.85,1.85,0,0,0,1.83,0Z"/><path class="cls-1" d="M14.54,7.78a3.36,3.36,0,0,0-3.38-3.23,3.59,3.59,0,0,0-3,1.51V4.87H5.21a1.48,1.48,0,0,0,0,.24c0,3,0,6.07,0,9.1,0,.33.14.42.43.42.71,0,1.42,0,2.13,0,.46,0,.63-.12.62-.61,0-1.62,0-3.24,0-4.86A2.62,2.62,0,0,1,8.71,8a1.47,1.47,0,0,1,1.62-.64,1.15,1.15,0,0,1,1,1,7.39,7.39,0,0,1,.11,1.33c0,1.48,0,3,0,4.45,0,.35.1.54.5.53.74,0,1.48,0,2.22,0,.36,0,.5-.14.5-.49C14.6,12,14.63,9.9,14.54,7.78Z"/></g></g></svg>