<?xml version="1.0" encoding="utf-8"?>
<!-- Generator: Adobe Illustrator 26.0.2, SVG Export Plug-In . SVG Version: 6.00 Build 0)  -->
<svg version="1.1" id="Calque_1" xmlns="http://www.w3.org/2000/svg" xmlns:xlink="http://www.w3.org/1999/xlink" x="0px" y="0px"
	 viewBox="0 0 34.1 34.1" style="enable-background:new 0 0 34.1 34.1;" xml:space="preserve">
<style type="text/css">
	.st0{clip-path:url(#SVGID_00000096044067878559561250000017525340125467303609_);}
	.st1{clip-path:url(#SVGID_00000132052643572269798310000016906990062407042745_);}
	.st2{clip-path:url(#SVGID_00000091735862857671905210000000585160533749801867_);}
	.st3{fill:#FFFFFF;}
</style>
<g id="Calque_2_00000020398800269779571310000002974869081103741330_">
	<g id="Calque_1-2">
		<g>
			<defs>
				<path id="SVGID_1_" d="M17,0L17,0c9.4,0,17,7.6,17,17v0c0,9.4-7.6,17-17,17h0c-9.4,0-17-7.6-17-17v0C0,7.6,7.6,0,17,0z"/>
			</defs>
			<clipPath id="SVGID_00000032613866478926887830000002217175595288986548_">
				<use xlink:href="#SVGID_1_"  style="overflow:visible;"/>
			</clipPath>
			<g style="clip-path:url(#SVGID_00000032613866478926887830000002217175595288986548_);">
				<g>
					<defs>
						<rect id="SVGID_00000036222605291236358750000002859082930396151717_" x="-0.3" y="-0.3" width="34.8" height="34.8"/>
					</defs>
					<clipPath id="SVGID_00000142144391903705411930000010371162732830154677_">
						<use xlink:href="#SVGID_00000036222605291236358750000002859082930396151717_"  style="overflow:visible;"/>
					</clipPath>
					<g style="clip-path:url(#SVGID_00000142144391903705411930000010371162732830154677_);">
						<g>
							<defs>
								<rect id="SVGID_00000108279776536675092050000007721355224777948838_" x="-7.7" y="-7.7" width="49.5" height="49.5"/>
							</defs>
							<clipPath id="SVGID_00000165948777964145573070000007869701029455371436_">
								<use xlink:href="#SVGID_00000108279776536675092050000007721355224777948838_"  style="overflow:visible;"/>
							</clipPath>
							<g style="clip-path:url(#SVGID_00000165948777964145573070000007869701029455371436_);">
								
									<image style="overflow:visible;enable-background:new    ;" width="71" height="71" xlink:href="A95A5D8F.png"  transform="matrix(0.706 0 0 0.706 -7.7662 -7.9133)">
								</image>
							</g>
						</g>
					</g>
				</g>
				<path class="st3" d="M17.1,11.4c-3.1,0-5.7,2.5-5.7,5.6c0,3.1,2.5,5.7,5.6,5.7c3.1,0,5.7-2.5,5.7-5.6c0,0,0,0,0,0
					C22.7,14,20.2,11.4,17.1,11.4L17.1,11.4z M17.1,20.8c-2,0-3.7-1.6-3.7-3.7c0-2,1.6-3.7,3.7-3.7s3.7,1.6,3.7,3.7c0,0,0,0,0,0
					C20.8,19.1,19.1,20.8,17.1,20.8C17.1,20.8,17.1,20.8,17.1,20.8z"/>
				<path class="st3" d="M24.3,11.2c0,0.7-0.6,1.3-1.3,1.3c0,0,0,0,0,0c-0.7,0-1.3-0.6-1.3-1.3c0,0,0,0,0,0c0-0.7,0.6-1.3,1.3-1.3
					c0,0,0,0,0,0C23.7,9.9,24.3,10.5,24.3,11.2z"/>
				<path class="st3" d="M28.1,13.4c0-0.7,0-1.5-0.1-2.2c-0.2-1.1-0.7-2.2-1.5-3.1c-1.1-1.2-2.7-1.9-4.3-1.9
					c-1.2-0.1-2.5-0.1-3.7-0.1c-1.7,0-3.4,0-5.1,0c-0.7,0-1.5,0-2.2,0.2C10,6.4,8.9,6.9,8.1,7.7C6.9,8.8,6.2,10.4,6.2,12
					c-0.1,1.3-0.1,2.6-0.1,3.9c0,1.6,0,3.3,0,4.9c0,0.7,0.1,1.5,0.2,2.2c0.3,2.2,1.9,4.1,4.1,4.7c1,0.3,1.9,0.4,2.9,0.4
					c1.3,0,2.5,0.1,3.7,0s2.5,0,3.8,0c0.8,0,1.6-0.1,2.4-0.2c1.7-0.3,3.2-1.4,4-2.9c0.5-1,0.8-2.1,0.8-3.3c0.1-1,0-2.1,0.1-3.1
					C28.1,16.8,28.1,15.1,28.1,13.4z M26.1,20.8c0,0.6,0,1.3-0.2,1.9c-0.3,1.7-1.6,3-3.4,3.2c-0.8,0.1-1.7,0.2-2.5,0.2
					c-1.5,0-2.9,0-4.3,0c-1.2,0-2.3,0-3.5-0.1c-0.9,0-1.8-0.4-2.6-0.9c-0.8-0.6-1.3-1.5-1.5-2.5C8.1,22.1,8,21.5,8,20.9
					c0-2.2,0-4.4,0-6.5c0-0.9,0-1.8,0.2-2.7C8.3,10.7,8.8,9.7,9.6,9c0.6-0.5,1.3-0.8,2.1-0.8C13,8,14.3,8,15.6,8c1.4,0,2.7,0,4.1,0
					c1,0,2,0,3,0.2c1.1,0.2,2.2,0.8,2.8,1.8c0.4,0.6,0.6,1.4,0.6,2.1c0.1,1.7,0.1,3.3,0.1,5C26.2,18.3,26.2,19.6,26.1,20.8z"/>
			</g>
		</g>
	</g>
</g>
</svg>
