<?xml version="1.0" encoding="utf-8"?>
<!-- Generator: Adobe Illustrator 26.0.2, SVG Export Plug-In . SVG Version: 6.00 Build 0)  -->
<svg version="1.1" id="Calque_1" xmlns="http://www.w3.org/2000/svg" xmlns:xlink="http://www.w3.org/1999/xlink" x="0px" y="0px"
	 viewBox="0 0 34.1 34.1" style="enable-background:new 0 0 34.1 34.1;" xml:space="preserve">
<style type="text/css">
	.st0{clip-path:url(#SVGID_00000023263494558888835490000009925112749432651393_);}
	.st1{clip-path:url(#SVGID_00000063611137693117004250000001706430141548885168_);}
	.st2{fill:#FFFFFF;}
</style>
<g>
	<g>
		<defs>
			<path id="SVGID_1_" d="M17,34.1L17,34.1c-9.4,0-17-7.7-17-17l0,0c0-9.4,7.7-17,17-17h0c9.4,0,17,7.7,17,17v0
				C34.1,26.5,26.4,34.1,17,34.1z"/>
		</defs>
		<clipPath id="SVGID_00000156551853906462980710000010951671304898166689_">
			<use xlink:href="#SVGID_1_"  style="overflow:visible;"/>
		</clipPath>
		<g style="clip-path:url(#SVGID_00000156551853906462980710000010951671304898166689_);">
			<g>
				<defs>
					<rect id="SVGID_00000132793622316737820070000008239316077223831683_" x="-0.3" y="-0.3" width="34.8" height="34.8"/>
				</defs>
				<clipPath id="SVGID_00000013152520691711350730000017245294657581423770_">
					<use xlink:href="#SVGID_00000132793622316737820070000008239316077223831683_"  style="overflow:visible;"/>
				</clipPath>
				<g style="clip-path:url(#SVGID_00000013152520691711350730000017245294657581423770_);">
				</g>
			</g>
		</g>
	</g>
	<g>
		<path class="st2" d="M17.1,11.5c-3.1,0-5.6,2.5-5.6,5.6c0,3.1,2.5,5.6,5.6,5.6c3.1,0,5.6-2.5,5.6-5.6C22.7,14,20.2,11.5,17.1,11.5
			z M17.1,20.8c-2,0-3.7-1.6-3.7-3.7c0-2.1,1.6-3.7,3.7-3.7c2,0,3.7,1.6,3.7,3.7C20.8,19.2,19.1,20.8,17.1,20.8z"/>
		<path class="st2" d="M24.3,11.3c0,0.7-0.6,1.3-1.3,1.3c-0.7,0-1.3-0.6-1.3-1.3c0-0.7,0.6-1.3,1.3-1.3C23.7,10,24.3,10.6,24.3,11.3
			z"/>
		<path class="st2" d="M28.1,13.4c0-0.7-0.1-1.5-0.2-2.2c-0.2-1.2-0.7-2.2-1.5-3.1c-1.1-1.2-2.6-1.8-4.2-1.9
			c-1.2-0.1-2.5-0.1-3.7-0.1c-1.7,0-3.4,0-5.1,0c-0.8,0-1.5,0-2.2,0.2C10,6.6,9,7,8.1,7.8C6.8,9,6.3,10.4,6.2,12.1
			c-0.1,1.3-0.1,2.6-0.1,3.9c0,1.6,0,3.3,0,4.9c0,0.7,0,1.5,0.2,2.2c0.5,2.3,1.8,3.9,4.1,4.7c1,0.3,2,0.4,3,0.4c1.2,0,2.5,0.1,3.7,0
			c1.3,0,2.5,0,3.8,0c0.8,0,1.6-0.1,2.4-0.2c1.8-0.4,3.1-1.3,4-2.9c0.5-1,0.7-2.1,0.8-3.3c0.1-1,0.1-2.1,0.1-3.1
			C28.1,16.9,28.1,15.1,28.1,13.4z M26.1,20.9c0,0.6,0,1.3-0.2,1.9c-0.4,1.8-1.5,2.9-3.4,3.2c-0.8,0.1-1.7,0.1-2.5,0.2
			c-1.4,0-2.9,0-4.3,0c-1.2,0-2.3,0-3.5-0.1c-0.9-0.1-1.8-0.3-2.6-0.9c-0.8-0.6-1.2-1.5-1.4-2.5c-0.1-0.6-0.1-1.1-0.1-1.7
			C8,18.8,8,16.7,8,14.5c0-0.9,0-1.8,0.1-2.7c0.2-1.1,0.6-2.1,1.5-2.8c0.6-0.5,1.3-0.7,2.1-0.8c1.3-0.2,2.5-0.2,3.8-0.2
			c1.4,0,2.7,0,4.1,0c1,0,2,0,3,0.2c1.2,0.2,2.1,0.8,2.8,1.8c0.4,0.7,0.6,1.4,0.6,2.1c0.1,1.7,0.1,3.3,0.1,5
			C26.2,18.4,26.2,19.6,26.1,20.9z"/>
	</g>
</g>
</svg>
