<svg xmlns="http://www.w3.org/2000/svg" viewBox="0 0 23.17 23.17"><defs><style>.cls-1{fill:#0a66c2;}.cls-2{fill:#fff;}</style></defs><g id="Calque_2" data-name="Calque 2"><g id="Calque_1-2" data-name="Calque 1"><rect class="cls-1" width="23.17" height="23.17" rx="11.58"/><path class="cls-2" d="M17.74,17.32c0,.3-.12.42-.41.41-.63,0-1.25,0-1.87,0-.34,0-.43-.15-.42-.45,0-1.25,0-2.5,0-3.74A6.87,6.87,0,0,0,15,12.43a1,1,0,0,0-.83-.85,1.25,1.25,0,0,0-1.37.54,2.28,2.28,0,0,0-.3,1c0,1.37,0,2.73,0,4.09,0,.42-.14.53-.53.52-.6,0-1.19,0-1.79,0-.24,0-.36-.07-.36-.35q0-3.82,0-7.65c0-.06,0-.11,0-.2h2.47v1a3,3,0,0,1,2.53-1.27A2.82,2.82,0,0,1,17.66,12C17.73,13.76,17.71,15.54,17.74,17.32Z"/><path class="cls-2" d="M8.32,17.15c0,.58,0,.58-.59.58s-1.13,0-1.69,0c-.29,0-.42-.1-.42-.4q0-3.72,0-7.44c0-.12.15-.36.23-.36.79,0,1.59,0,2.41,0,0,.21.05.38.05.55Z"/><path class="cls-2" d="M8.52,7A1.55,1.55,0,0,1,5.43,7,1.55,1.55,0,0,1,8.52,7Z"/><path class="cls-2" d="M8.27,9.51c-.82,0-1.62,0-2.41,0-.08,0-.23.24-.23.36q0,3.72,0,7.44c0,.3.13.41.42.4.56,0,1.13,0,1.69,0s.59,0,.59-.58V10.06C8.32,9.89,8.29,9.72,8.27,9.51Z"/><path class="cls-2" d="M7,5.43A1.54,1.54,0,0,0,7,8.51,1.54,1.54,0,1,0,7,5.43Z"/><path class="cls-2" d="M17.66,12a2.82,2.82,0,0,0-2.85-2.72,3,3,0,0,0-2.53,1.27v-1H9.81c0,.09,0,.14,0,.2q0,3.82,0,7.65c0,.28.12.36.36.35.6,0,1.19,0,1.79,0,.39,0,.53-.1.53-.52,0-1.36,0-2.72,0-4.09a2.28,2.28,0,0,1,.3-1,1.25,1.25,0,0,1,1.37-.54,1,1,0,0,1,.83.85A6.87,6.87,0,0,1,15,13.55c0,1.24,0,2.49,0,3.74,0,.3.08.46.42.45.62,0,1.24,0,1.87,0,.29,0,.42-.11.41-.41C17.71,15.54,17.73,13.76,17.66,12Z"/></g></g></svg>